<svg width="41" height="39" viewBox="0 0 41 39" fill="none" xmlns="http://www.w3.org/2000/svg">
<path fill-rule="evenodd" clip-rule="evenodd" d="M18.7985 0.618917C18.8012 0.959404 18.9109 2.5747 19.0426 4.20864C19.1743 5.84258 19.2836 7.34663 19.2856 7.55079C19.2884 7.85266 19.3818 7.92214 19.7842 7.92214C20.383 7.92214 20.3759 8.04312 20.0317 3.63098C19.9007 1.95165 19.7914 0.447601 19.7888 0.288828C19.7855 0.0790564 19.6488 0 19.289 0C18.8261 0 18.7942 0.0402709 18.7985 0.618917ZM29.5667 2.86501C29.4947 2.96866 28.6939 4.56266 27.7872 6.4072C26.1985 9.63877 26.1501 9.76965 26.4587 9.99692C26.635 10.1266 26.843 10.2328 26.9209 10.2328C27.0422 10.2328 30.5144 3.36972 30.5108 3.137C30.5101 3.09096 30.3267 2.96866 30.1034 2.86501C29.7992 2.72406 29.6646 2.72406 29.5667 2.86501ZM6.37859 4.72902C6.12491 4.98253 6.22576 5.13586 7.81662 6.91587C8.75754 7.96852 9.97293 9.31264 10.5176 9.90268L11.5077 10.9755L11.8769 10.6137L12.2463 10.2521L10.6925 8.55146C9.83792 7.61615 8.82917 6.51629 8.45089 6.10748C8.07244 5.6985 7.60289 5.15979 7.40731 4.91008C6.998 4.38738 6.76166 4.34579 6.37859 4.72902ZM34.0897 12.1214C32.4718 13.1475 31.0722 14.0628 30.9798 14.1552C30.7263 14.4087 31.1285 15.0711 31.4591 14.9443C31.6979 14.8527 34.182 13.3178 36.7329 11.6855C37.6918 11.072 37.7437 11.007 37.573 10.6322C37.4728 10.4125 37.3101 10.2379 37.2111 10.2443C37.1122 10.2506 35.7075 11.0953 34.0897 12.1214ZM16.7171 10.587C16.4656 10.7091 16.1392 11.4176 15.5018 13.2252C15.0223 14.5845 14.6572 15.7226 14.6902 15.7545C14.8391 15.8978 18.4978 17.0207 18.5724 16.9461C18.7401 16.7784 20.2793 12.5325 20.2793 12.2377C20.2793 11.7844 19.8395 11.4698 18.4183 10.9065C17.7124 10.6267 17.1182 10.4028 17.0979 10.409C17.0776 10.4151 16.9061 10.4952 16.7171 10.587ZM21.1473 12.8436C20.9639 12.96 19.4541 16.8118 19.4541 17.163C19.4541 17.2414 19.8474 17.4855 20.3282 17.7057C20.8088 17.9257 21.4713 18.3421 21.8004 18.6311C22.1293 18.9199 22.434 19.0981 22.4774 19.027C22.5206 18.9559 22.941 17.9004 23.4115 16.6817C24.4224 14.0626 24.4074 13.9544 22.9307 13.209C21.9172 12.6974 21.5092 12.6137 21.1473 12.8436ZM0.0473094 15.4287C-0.0934736 15.99 0.0279996 16.0882 1.13413 16.3087C1.63339 16.4082 3.2533 16.7459 4.73392 17.0592L7.4258 17.6286L7.58721 17.2041C7.69779 16.9131 7.69234 16.7446 7.56988 16.6688C7.47151 16.6081 5.85325 16.2378 3.97372 15.8459C2.09419 15.4541 0.466688 15.1011 0.357098 15.0613C0.246518 15.0212 0.108541 15.1851 0.0473094 15.4287ZM24.9288 15.3079C24.5526 15.6289 21.561 22.8088 21.5594 23.3946C21.5579 23.9364 21.8542 24.2099 22.7735 24.5152C23.4952 24.755 23.635 24.7587 23.9573 24.5466C24.3551 24.2848 27.7063 17.1359 27.7063 16.5492C27.7063 16.1353 27.4305 15.9006 26.3629 15.4059C25.3633 14.9428 25.3571 14.9423 24.9288 15.3079ZM12.8234 16.4195C12.3331 16.6944 12.2471 16.8968 10.778 21.2325C9.88628 23.8646 9.83248 24.1074 10.0107 24.7024C10.1162 25.0543 11.2392 26.8508 12.5064 28.6948L14.8104 32.0474L14.7142 35.3078L14.6181 38.5683L17.16 38.6746C18.5579 38.7332 20.9456 38.8302 22.4661 38.8906L25.2306 39.0002L25.2257 38.5216C25.2229 38.2582 25.1182 36.7437 24.9928 35.1562C24.8675 33.5684 24.7999 32.2131 24.8425 32.1441C24.8852 32.0751 25.0116 32.0187 25.1235 32.0187C25.3582 32.0187 26.4946 30.8645 27.0285 30.084C27.3851 29.5625 28.8643 25.9888 28.8577 25.6644C28.8558 25.5737 28.726 25.6578 28.5692 25.8514C28.1919 26.317 27.6684 26.5727 27.0983 26.5697C26.8426 26.5684 25.3843 26.2474 23.8575 25.8566C21.2189 25.181 21.0867 25.1627 21.1877 25.4877C21.5066 26.5133 21.4561 28.8828 21.1154 28.8828C21.0418 28.8828 20.9459 28.5133 20.9025 28.0615C20.8093 27.0903 19.9137 25.1792 19.3915 24.8371C19.1894 24.7045 18.6013 24.4509 18.0849 24.2731C17.5683 24.0954 16.8995 23.7621 16.5985 23.5326C15.9522 23.0396 15.3304 21.8735 15.2015 20.9121L15.1094 20.2262L15.6389 20.6717C16.3674 21.2847 17.3186 21.5042 18.8906 21.4223C20.8593 21.3198 21.9809 20.5241 21.7051 19.4256C21.5648 18.8664 21.3326 18.7537 17.6036 17.4363C14.099 16.1983 13.4598 16.0623 12.8234 16.4195ZM28.3353 17.9486C27.8804 18.4794 25.3777 24.471 25.4289 24.9062C25.4703 25.2581 25.5954 25.3487 26.2054 25.4685C26.6568 25.5573 27.0696 25.5491 27.2942 25.4467C27.6791 25.2713 30.8443 19.5259 30.8397 19.0113C30.8357 18.586 30.657 18.3959 29.8998 18.012C29.0557 17.5842 28.6611 17.5682 28.3353 17.9486ZM20.5662 21.7161C20.2248 21.8366 19.4967 21.9858 18.9482 22.0478C18.0056 22.1544 17.9538 22.1832 18.0012 22.5738C18.0431 22.9204 18.21 23.0371 19.0365 23.2979C19.5784 23.469 20.1166 23.5725 20.2326 23.5279C20.4457 23.4462 21.3674 21.6576 21.2503 21.5535C21.2154 21.5226 20.9076 21.5958 20.5662 21.7161ZM32.6027 22.061C32.5421 22.1214 32.4926 22.3335 32.4926 22.5321C32.4926 22.8778 32.6545 22.9156 36.314 23.4221C39.4103 23.8508 40.1616 23.91 40.2727 23.7349C40.4058 23.525 40.47 22.9412 40.36 22.9412C40.3299 22.9412 38.7206 22.7184 36.7838 22.4461C33.0019 21.9143 32.7705 21.893 32.6027 22.061ZM3.48601 25.8762C0.244539 26.816 0.0621636 26.917 0.463222 27.5507C0.587996 27.748 1.17044 27.6281 4.00921 26.8216C6.10082 26.2271 7.40582 25.7772 7.40582 25.6501C7.40582 25.2348 7.19869 24.9222 6.93429 24.9384C6.78509 24.9475 5.23351 25.3695 3.48601 25.8762ZM30.8403 30.3717C30.7421 30.555 30.6981 30.7637 30.7423 30.8353C30.7865 30.9068 31.9884 31.8848 33.4134 33.0086L36.0039 35.0518L36.318 34.6642C36.4907 34.4509 36.5732 34.2215 36.5015 34.1543C35.9605 33.6473 31.282 30.0381 31.166 30.0381C31.0851 30.0381 30.9385 30.1881 30.8403 30.3717ZM8.38817 33.5453C7.3606 34.6574 6.16056 35.9424 5.72138 36.4013L4.92273 37.2356L5.30827 37.5978L5.69382 37.9599L8.25118 35.1956C9.65786 33.6752 10.8675 32.3336 10.9393 32.2139C11.0564 32.0192 10.6532 31.5442 10.3578 31.5288C10.302 31.5258 9.41574 32.4333 8.38817 33.5453Z" fill="#134C83"/>
</svg>
